<?xml version="1.0" encoding="UTF-8" standalone="no"?>
<svg
   id="svg2"
   sodipodi:docname="credit.svg"
   viewBox="0 0 626.15 627.95"
   version="1.1"
   inkscape:version="1.4.3 (0d15f75042, 2025-12-25)"
   xmlns:inkscape="http://www.inkscape.org/namespaces/inkscape"
   xmlns:sodipodi="http://sodipodi.sourceforge.net/DTD/sodipodi-0.dtd"
   xmlns="http://www.w3.org/2000/svg"
   xmlns:svg="http://www.w3.org/2000/svg"
   xmlns:rdf="http://www.w3.org/1999/02/22-rdf-syntax-ns#"
   xmlns:cc="http://creativecommons.org/ns#"
   xmlns:dc="http://purl.org/dc/elements/1.1/">
  <defs
     id="defs1" />
  <sodipodi:namedview
     id="namedview8"
     bordercolor="#666666"
     inkscape:pageshadow="2"
     guidetolerance="10"
     pagecolor="#ffffff"
     gridtolerance="10"
     inkscape:window-maximized="1"
     inkscape:zoom="1.2685914"
     objecttolerance="10"
     borderopacity="1"
     inkscape:current-layer="layer1"
     inkscape:cx="250.2776"
     inkscape:cy="323.58726"
     inkscape:window-y="0"
     inkscape:window-x="0"
     inkscape:window-width="1920"
     showgrid="false"
     inkscape:pageopacity="0"
     inkscape:window-height="1050"
     inkscape:showpageshadow="2"
     inkscape:pagecheckerboard="0"
     inkscape:deskcolor="#d1d1d1" />
  <g
     id="layer1"
     transform="translate(-.46743 1.0312)">
    <path
       id="path1295"
       inkscape:connector-curvature="0"
       style="stroke:#000000;stroke-width:23.401;fill:#ffffff;fill-opacity:1"
       transform="matrix(1.5104,0,0,0.83562,1407.5,30.438)"
       d="m-525.71 338.08a198.58 360.01 0 1 1 -397.15 0 198.58 360.01 0 1 1 397.15 0z" />
    <path
       id="text1291"
       d="m449.8 144.29v63.55c-20.29-18.89-41.92-33.02-64.9-42.36-22.97-9.35-47.39-14.03-73.24-14.03-50.92 0-89.91 15.57-116.96 46.7s-40.58 76.13-40.58 135c0 58.68 13.53 103.58 40.58 134.71s66.04 46.7 116.96 46.7c25.85 0 50.27-4.68 73.24-14.03 22.98-9.34 44.61-23.47 64.9-42.36v62.95c-21.09 14.32-43.41 25.06-66.98 32.22s-48.49 10.74-74.74 10.74c-67.43 0-120.54-20.63-159.33-61.91-38.78-41.27-58.177-97.61-58.177-169.02 0-71.6 19.397-128.04 58.177-169.32 38.79-41.27 91.9-61.9 159.33-61.9 26.65 0 51.76 3.53 75.33 10.59s45.7 17.65 66.39 31.77z"
       inkscape:connector-curvature="0"
       transform="scale(1.0554 .94752)"
       inkscape:label="text1291"
       style="fill:#000000;fill-opacity:1" />
  </g>
  <metadata
     id="metadata6">
    <rdf:RDF>
      <cc:Work>
        <dc:format>image/svg+xml</dc:format>
        <dc:type
           rdf:resource="http://purl.org/dc/dcmitype/StillImage" />
        <cc:license
           rdf:resource="http://creativecommons.org/licenses/publicdomain/" />
        <dc:publisher>
          <cc:Agent
             rdf:about="http://openclipart.org/">
            <dc:title>Openclipart</dc:title>
          </cc:Agent>
        </dc:publisher>
      </cc:Work>
      <cc:License
         rdf:about="http://creativecommons.org/licenses/publicdomain/">
        <cc:permits
           rdf:resource="http://creativecommons.org/ns#Reproduction" />
        <cc:permits
           rdf:resource="http://creativecommons.org/ns#Distribution" />
        <cc:permits
           rdf:resource="http://creativecommons.org/ns#DerivativeWorks" />
      </cc:License>
    </rdf:RDF>
  </metadata>
</svg>
