<?xml version="1.0" encoding="UTF-8" standalone="no"?>
<!-- Generator: Adobe Illustrator 11.0, SVG Export Plug-In . SVG Version: 6.0.0 Build 78)  -->
<svg xmlns:rdf="http://www.w3.org/1999/02/22-rdf-syntax-ns#" xmlns="http://www.w3.org/2000/svg" xmlns:x="http://ns.adobe.com/Extensibility/1.0/" xmlns:dc="http://purl.org/dc/elements/1.1/" xmlns:i="http://ns.adobe.com/AdobeIllustrator/10.0/" xmlns:cc="http://web.resource.org/cc/" xmlns:xlink="http://www.w3.org/1999/xlink" xmlns:a="http://ns.adobe.com/AdobeSVGViewerExtensions/3.0/" xmlns:graph="http://ns.adobe.com/Graphs/1.0/" xmlns:svg="http://www.w3.org/2000/svg" xmlns:inkscape="http://www.inkscape.org/namespaces/inkscape" xmlns:sodipodi="http://sodipodi.sourceforge.net/DTD/sodipodi-0.dtd" xmlns:ns1="http://sozi.baierouge.fr" i:rulerOrigin="0 0" overflow="visible" i:viewOrigin="227.5708 736.5112" i:pageBounds="0 792 612 0" enable-background="new 0 0 254.763 254.763" xml:space="preserve" viewBox="0 0 254.763 254.763">
		<g id="Layer_1" i:rgbTrio="#4F008000FFFF" stroke="#000000" i:layer="yes" i:dimmedPercent="50">
			<path fill="#FFFF00" d="m127.38 0.5c-70.073 0-126.88 56.807-126.88 126.88 0 70.075 56.807 126.88 126.88 126.88 70.074 0 126.88-56.807 126.88-126.88s-56.8-126.88-126.88-126.88zm45.16 48.925c11.58 0 20.969 13.961 20.969 31.183s-9.389 31.183-20.969 31.183-20.967-13.961-20.967-31.183 9.39-31.182 20.97-31.182zm-90.32 0c11.58 0 20.968 13.961 20.968 31.183s-9.39 31.182-20.97 31.182-20.968-13.961-20.968-31.183 9.388-31.182 20.968-31.182zm45.16 171.5c-36.911 0-69.268-19.478-87.367-48.712 23.301 17.601 53.877 28.282 87.367 28.282 33.488 0 64.066-10.682 87.365-28.282-18.09 29.23-50.45 48.71-87.36 48.71z" i:knockout="Off"/>
			<path d="m127.38 200.5c-33.49 0-64.066-10.682-87.367-28.282 18.1 29.234 50.456 48.712 87.367 48.712 36.91 0 69.268-19.478 87.365-48.712-23.29 17.6-53.87 28.28-87.36 28.28zm-45.16-88.71c11.58 0 20.968-13.961 20.968-31.183s-9.39-31.182-20.97-31.182-20.968 13.961-20.968 31.182 9.388 31.183 20.968 31.183zm90.32 0c11.58 0 20.969-13.961 20.969-31.183s-9.389-31.183-20.969-31.183-20.967 13.961-20.967 31.183 9.39 31.183 20.97 31.183z" i:knockout="Off"/>
		</g>
	<metadata><rdf:RDF><cc:Work><dc:format>image/svg+xml</dc:format><dc:type rdf:resource="http://purl.org/dc/dcmitype/StillImage"/><cc:license rdf:resource="http://creativecommons.org/licenses/publicdomain/"/><dc:publisher><cc:Agent rdf:about="http://openclipart.org/"><dc:title>Openclipart</dc:title></cc:Agent></dc:publisher><dc:title>Smiley - Yellow and Black</dc:title><dc:date>2007-02-08T15:21:26</dc:date><dc:description>This is another smiley face with yellow body and black features.</dc:description><dc:source>https://openclipart.org/detail/3127/smiley---yellow-and-black-by-azieser</dc:source><dc:creator><cc:Agent><dc:title>azieser</dc:title></cc:Agent></dc:creator><dc:subject><rdf:Bag><rdf:li>black</rdf:li><rdf:li>smiley face</rdf:li><rdf:li>yellow</rdf:li></rdf:Bag></dc:subject></cc:Work><cc:License rdf:about="http://creativecommons.org/licenses/publicdomain/"><cc:permits rdf:resource="http://creativecommons.org/ns#Reproduction"/><cc:permits rdf:resource="http://creativecommons.org/ns#Distribution"/><cc:permits rdf:resource="http://creativecommons.org/ns#DerivativeWorks"/></cc:License></rdf:RDF></metadata></svg>