<?xml version="1.0" encoding="UTF-8" standalone="no"?>
<!-- Created with Inkscape (http://www.inkscape.org/) -->

<svg
   id="svg11008"
   sodipodi:docname="settings.svg"
   viewBox="0 0 128.09375 128.11032"
   sodipodi:version="0.32"
   version="1.0"
   inkscape:output_extension="org.inkscape.output.svg.inkscape"
   inkscape:version="1.4.3 (0d15f75042, 2025-12-25)"
   width="100%"
   height="100%"
   xmlns:inkscape="http://www.inkscape.org/namespaces/inkscape"
   xmlns:sodipodi="http://sodipodi.sourceforge.net/DTD/sodipodi-0.dtd"
   xmlns:xlink="http://www.w3.org/1999/xlink"
   xmlns="http://www.w3.org/2000/svg"
   xmlns:svg="http://www.w3.org/2000/svg"
   xmlns:rdf="http://www.w3.org/1999/02/22-rdf-syntax-ns#"
   xmlns:cc="http://creativecommons.org/ns#"
   xmlns:dc="http://purl.org/dc/elements/1.1/">
  <defs
     id="defs11010">
    <linearGradient
       id="linearGradient44">
      <stop
         id="stop43"
         style="stop-color:#1a3d9a;stop-opacity:1;"
         offset="0" />
      <stop
         id="stop44"
         style="stop-color:#a5a7a9"
         offset="1" />
    </linearGradient>
    <linearGradient
       id="linearGradient42">
      <stop
         id="stop41"
         style="stop-color:#1a3d9a;stop-opacity:1;"
         offset="0" />
      <stop
         id="stop42"
         style="stop-color:#a5a7a9"
         offset="1" />
    </linearGradient>
    <linearGradient
       id="linearGradient40">
      <stop
         id="stop39"
         style="stop-color:#1a3d9a;stop-opacity:1;"
         offset="0" />
      <stop
         id="stop40"
         style="stop-color:#a5a7a9"
         offset="1" />
    </linearGradient>
    <linearGradient
       id="linearGradient38">
      <stop
         id="stop37"
         style="stop-color:#1a3d9a;stop-opacity:1;"
         offset="0" />
      <stop
         id="stop38"
         style="stop-color:#a5a7a9"
         offset="1" />
    </linearGradient>
    <linearGradient
       id="linearGradient36">
      <stop
         id="stop35"
         style="stop-color:#1a3d9a;stop-opacity:1;"
         offset="0" />
      <stop
         id="stop36"
         style="stop-color:#a5a7a9"
         offset="1" />
    </linearGradient>
    <linearGradient
       id="linearGradient34">
      <stop
         id="stop33"
         style="stop-color:#1a3d9a;stop-opacity:1;"
         offset="0" />
      <stop
         id="stop34"
         style="stop-color:#a5a7a9"
         offset="1" />
    </linearGradient>
    <linearGradient
       id="linearGradient32">
      <stop
         id="stop31"
         style="stop-color:#1a3d9a;stop-opacity:1;"
         offset="0" />
      <stop
         id="stop32"
         style="stop-color:#a5a7a9"
         offset="1" />
    </linearGradient>
    <linearGradient
       id="linearGradient30">
      <stop
         id="stop29"
         style="stop-color:#1a3d9a;stop-opacity:1;"
         offset="0" />
      <stop
         id="stop30"
         style="stop-color:#a5a7a9"
         offset="1" />
    </linearGradient>
    <linearGradient
       id="linearGradient28">
      <stop
         id="stop27"
         style="stop-color:#1a3d9a;stop-opacity:1;"
         offset="0" />
      <stop
         id="stop28"
         style="stop-color:#a5a7a9"
         offset="1" />
    </linearGradient>
    <linearGradient
       id="linearGradient26">
      <stop
         id="stop25"
         style="stop-color:#1a3d9a;stop-opacity:1;"
         offset="0" />
      <stop
         id="stop26"
         style="stop-color:#a5a7a9"
         offset="1" />
    </linearGradient>
    <linearGradient
       id="linearGradient24">
      <stop
         id="stop23"
         style="stop-color:#1a3d9a;stop-opacity:1;"
         offset="0" />
      <stop
         id="stop24"
         style="stop-color:#a5a7a9"
         offset="1" />
    </linearGradient>
    <linearGradient
       id="linearGradient22">
      <stop
         id="stop21"
         style="stop-color:#1a3d9a;stop-opacity:1;"
         offset="0" />
      <stop
         id="stop22"
         style="stop-color:#a5a7a9"
         offset="1" />
    </linearGradient>
    <linearGradient
       id="linearGradient20">
      <stop
         id="stop19"
         style="stop-color:#1a3d9a;stop-opacity:1;"
         offset="0" />
      <stop
         id="stop20"
         style="stop-color:#a5a7a9"
         offset="1" />
    </linearGradient>
    <linearGradient
       id="linearGradient18">
      <stop
         id="stop17"
         style="stop-color:#1a3d9a;stop-opacity:1;"
         offset="0" />
      <stop
         id="stop18"
         style="stop-color:#a5a7a9"
         offset="1" />
    </linearGradient>
    <linearGradient
       id="linearGradient16">
      <stop
         id="stop15"
         style="stop-color:#1a3d9a;stop-opacity:1;"
         offset="0" />
      <stop
         id="stop16"
         style="stop-color:#a5a7a9"
         offset="1" />
    </linearGradient>
    <linearGradient
       id="linearGradient14">
      <stop
         id="stop13"
         style="stop-color:#1a3d9a;stop-opacity:1;"
         offset="0" />
      <stop
         id="stop14"
         style="stop-color:#a5a7a9"
         offset="1" />
    </linearGradient>
    <linearGradient
       id="linearGradient12">
      <stop
         id="stop11"
         style="stop-color:#1a3d9a;stop-opacity:1;"
         offset="0" />
      <stop
         id="stop12"
         style="stop-color:#a5a7a9"
         offset="1" />
    </linearGradient>
    <linearGradient
       id="linearGradient10">
      <stop
         id="stop9"
         style="stop-color:#1a3d9a;stop-opacity:1;"
         offset="0" />
      <stop
         id="stop10"
         style="stop-color:#a5a7a9"
         offset="1" />
    </linearGradient>
    <linearGradient
       id="linearGradient8">
      <stop
         id="stop7"
         style="stop-color:#1a3d9a;stop-opacity:1;"
         offset="0" />
      <stop
         id="stop8"
         style="stop-color:#a5a7a9"
         offset="1" />
    </linearGradient>
    <linearGradient
       id="linearGradient6">
      <stop
         id="stop5"
         style="stop-color:#1a3d9a;stop-opacity:1;"
         offset="0" />
      <stop
         id="stop6"
         style="stop-color:#a5a7a9"
         offset="1" />
    </linearGradient>
    <linearGradient
       id="linearGradient4">
      <stop
         id="stop3"
         style="stop-color:#1a3d9a;stop-opacity:1;"
         offset="0" />
      <stop
         id="stop4"
         style="stop-color:#a5a7a9"
         offset="1" />
    </linearGradient>
    <linearGradient
       id="linearGradient2">
      <stop
         id="stop1"
         style="stop-color:#1a3d9a;stop-opacity:1;"
         offset="0" />
      <stop
         id="stop2"
         style="stop-color:#a5a7a9"
         offset="1" />
    </linearGradient>
    <filter
       id="filter4248"
       inkscape:collect="always"
       color-interpolation-filters="sRGB"
       x="-0.023531823"
       y="-0.024496191"
       width="1.0470636"
       height="1.0489924">
      <feGaussianBlur
         id="feGaussianBlur4250"
         stdDeviation="1.1481569"
         inkscape:collect="always" />
    </filter>
    <linearGradient
       id="linearGradient4276"
       y2="319.94"
       xlink:href="#linearGradient4270"
       gradientUnits="userSpaceOnUse"
       x2="-246.16"
       y1="322.19"
       x1="-242.28"
       inkscape:collect="always" />
    <linearGradient
       id="linearGradient4270">
      <stop
         id="stop4272"
         style="stop-color:#bd7b1a"
         offset="0" />
      <stop
         id="stop4274"
         style="stop-color:#ebb052"
         offset="1" />
    </linearGradient>
    <linearGradient
       id="linearGradient4284"
       y2="316.06"
       xlink:href="#linearGradient4270"
       gradientUnits="userSpaceOnUse"
       x2="-252.58"
       y1="313.98001"
       x1="-256.17999"
       inkscape:collect="always" />
    <linearGradient
       id="linearGradient3308"
       y2="527.42999"
       xlink:href="#linearGradient26"
       gradientUnits="userSpaceOnUse"
       x2="120.84"
       gradientTransform="matrix(0,-1.3613,1.2149,0,-447.3,506.75)"
       y1="527.42999"
       x1="111.37"
       inkscape:collect="always" />
    <linearGradient
       id="linearGradient3305"
       y2="520.42999"
       xlink:href="#linearGradient24"
       gradientUnits="userSpaceOnUse"
       x2="117.27"
       gradientTransform="matrix(0,-1.3613,1.2149,0,-447.3,506.75)"
       y1="520.42999"
       x1="111.18"
       inkscape:collect="always" />
    <linearGradient
       id="linearGradient3302"
       y2="519.70001"
       xlink:href="#linearGradient14"
       gradientUnits="userSpaceOnUse"
       x2="101.65"
       gradientTransform="matrix(0,-1.3613,1.2149,0,-447.3,506.75)"
       y1="519.70001"
       x1="90.710999"
       inkscape:collect="always" />
    <linearGradient
       id="linearGradient3299"
       y2="508.42999"
       xlink:href="#linearGradient16"
       gradientUnits="userSpaceOnUse"
       x2="101.3"
       gradientTransform="matrix(0,-1.3613,1.2149,0,-447.3,506.75)"
       y1="508.42999"
       x1="93.491997"
       inkscape:collect="always" />
    <linearGradient
       id="linearGradient3296"
       y2="514.40002"
       xlink:href="#linearGradient40"
       gradientUnits="userSpaceOnUse"
       x2="143.42999"
       gradientTransform="matrix(0,-1.3613,1.2149,0,-447.3,506.75)"
       y1="514.40002"
       x1="129.74001"
       inkscape:collect="always" />
    <linearGradient
       id="linearGradient3292"
       y2="506.67001"
       xlink:href="#linearGradient12"
       gradientUnits="userSpaceOnUse"
       x2="82.508003"
       gradientTransform="matrix(0,-1.3613,1.2149,0,-447.3,506.75)"
       y1="507.82999"
       x1="74.241997"
       inkscape:collect="always" />
    <linearGradient
       id="linearGradient3289"
       y2="500.73001"
       xlink:href="#linearGradient10"
       gradientUnits="userSpaceOnUse"
       x2="86.388"
       gradientTransform="matrix(0,-1.3613,1.2149,0,-447.3,506.75)"
       y1="496.62"
       x1="78.882004"
       inkscape:collect="always" />
    <linearGradient
       id="linearGradient3286"
       y2="491.56"
       xlink:href="#linearGradient8"
       gradientUnits="userSpaceOnUse"
       x2="91.555"
       gradientTransform="matrix(0,-1.3613,1.2149,0,-447.3,506.75)"
       y1="491.56"
       x1="84.616997"
       inkscape:collect="always" />
    <linearGradient
       id="linearGradient3282"
       y2="464.26001"
       xlink:href="#linearGradient42"
       gradientUnits="userSpaceOnUse"
       x2="144.28999"
       gradientTransform="matrix(0,-1.3613,1.2149,0,-447.3,506.75)"
       y1="457.73999"
       x1="136.64999"
       inkscape:collect="always" />
    <linearGradient
       id="linearGradient3279"
       y2="460.70001"
       xlink:href="#linearGradient44"
       gradientUnits="userSpaceOnUse"
       x2="146.28999"
       gradientTransform="matrix(0,-1.3613,1.2149,0,-447.3,506.75)"
       y1="454.89001"
       x1="143.14"
       inkscape:collect="always" />
    <linearGradient
       id="linearGradient4113"
       y2="481.79001"
       xlink:href="#linearGradient6"
       gradientUnits="userSpaceOnUse"
       x2="77.901001"
       gradientTransform="matrix(0,-1.3613,1.2149,0,-447.3,506.75)"
       y1="480.62"
       x1="70.960999"
       inkscape:collect="always" />
    <linearGradient
       id="linearGradient3276"
       y2="484.17999"
       xlink:href="#linearGradient14564"
       gradientUnits="userSpaceOnUse"
       x2="144.34"
       gradientTransform="matrix(0,-1.3613,1.2149,0,-447.3,506.75)"
       y1="478.70001"
       x1="145.39"
       inkscape:collect="always" />
    <linearGradient
       id="linearGradient4128"
       y2="329.35999"
       xlink:href="#linearGradient18"
       gradientUnits="userSpaceOnUse"
       x2="470.17001"
       gradientTransform="matrix(0.97431,0,0,1.0918,-336.41,19.449)"
       y1="339.76999"
       x1="466.22"
       inkscape:collect="always" />
    <linearGradient
       id="linearGradient4136"
       y2="347.85999"
       xlink:href="#linearGradient4"
       gradientUnits="userSpaceOnUse"
       x2="480.20999"
       gradientTransform="matrix(0.97431,0,0,1.0918,-336.41,19.449)"
       y1="350.35999"
       x1="475.45001"
       inkscape:collect="always" />
    <linearGradient
       id="linearGradient3270"
       y2="458.98001"
       xlink:href="#linearGradient22"
       gradientUnits="userSpaceOnUse"
       x2="88.912003"
       gradientTransform="matrix(0,-1.3613,1.2149,0,-447.3,506.75)"
       y1="460.70001"
       x1="83.921997"
       inkscape:collect="always" />
    <linearGradient
       id="linearGradient3267"
       y2="453.39001"
       xlink:href="#linearGradient20"
       gradientUnits="userSpaceOnUse"
       x2="88.739998"
       gradientTransform="matrix(0,-1.3613,1.2149,0,-447.3,506.75)"
       y1="450.26999"
       x1="81.665001"
       inkscape:collect="always" />
    <linearGradient
       id="linearGradient3263"
       y2="450.66"
       xlink:href="#linearGradient36"
       gradientUnits="userSpaceOnUse"
       x2="125.26"
       gradientTransform="matrix(0,-1.3613,1.2149,0,-447.3,506.75)"
       y1="448.82001"
       x1="119.32"
       inkscape:collect="always" />
    <linearGradient
       id="linearGradient3260"
       y2="442.76999"
       xlink:href="#linearGradient38"
       gradientUnits="userSpaceOnUse"
       x2="129.07001"
       gradientTransform="matrix(0,-1.3613,1.2149,0,-447.3,506.75)"
       y1="439.92999"
       x1="123.68"
       inkscape:collect="always" />
    <linearGradient
       id="linearGradient3256"
       y2="457.45001"
       xlink:href="#linearGradient28"
       gradientUnits="userSpaceOnUse"
       x2="104.84"
       gradientTransform="matrix(0,-1.3613,1.2149,0,-447.3,506.75)"
       y1="453.78"
       x1="100.1"
       inkscape:collect="always" />
    <linearGradient
       id="linearGradient3253"
       y2="451.57001"
       xlink:href="#linearGradient32"
       gradientUnits="userSpaceOnUse"
       x2="107.26"
       gradientTransform="matrix(0,-1.3613,1.2149,0,-447.3,506.75)"
       y1="452.35001"
       x1="102.12"
       inkscape:collect="always" />
    <linearGradient
       id="linearGradient3250"
       y2="442.53"
       xlink:href="#linearGradient30"
       gradientUnits="userSpaceOnUse"
       x2="106.56"
       gradientTransform="matrix(0,-1.3613,1.2149,0,-447.3,506.75)"
       y1="440.29999"
       x1="100.98"
       inkscape:collect="always" />
    <linearGradient
       id="linearGradient3247"
       y2="438.07001"
       xlink:href="#linearGradient34"
       gradientUnits="userSpaceOnUse"
       x2="108.79"
       gradientTransform="matrix(0,-1.3613,1.2149,0,-447.3,506.75)"
       y1="434.45001"
       x1="106.42"
       inkscape:collect="always" />
    <linearGradient
       id="linearGradient14564">
      <stop
         id="stop14566"
         style="stop-color:#1a3d9a;stop-opacity:1;"
         offset="0" />
      <stop
         id="stop14568"
         style="stop-color:#a5a7a9"
         offset="1" />
    </linearGradient>
    <linearGradient
       id="linearGradient4152"
       y2="457.76999"
       xlink:href="#linearGradient2"
       gradientUnits="userSpaceOnUse"
       x2="148.47"
       gradientTransform="matrix(0,-1.3613,1.2149,0,-447.3,506.75)"
       y1="514.09003"
       x1="81.271004"
       inkscape:collect="always" />
    <linearGradient
       id="linearGradient4241"
       y2="361.53"
       gradientUnits="userSpaceOnUse"
       x2="136.5"
       gradientTransform="matrix(0.97431,0,0,1.0918,354.12,-84.185)"
       y1="295.79001"
       x1="156.91"
       inkscape:collect="always">
      <stop
         id="stop4158"
         style="stop-color:#ffffff;stop-opacity:.53226"
         offset="0" />
      <stop
         id="stop4160"
         style="stop-color:#ffffff;stop-opacity:.024194"
         offset="1" />
    </linearGradient>
    <filter
       id="filter4146"
       inkscape:collect="always"
       color-interpolation-filters="sRGB"
       x="-0.007180126"
       y="-0.010118798"
       width="1.0143603"
       height="1.0202376">
      <feGaussianBlur
         id="feGaussianBlur4148"
         stdDeviation="0.35124878"
         inkscape:collect="always" />
    </filter>
    <linearGradient
       id="linearGradient3331"
       y2="437.78"
       gradientUnits="userSpaceOnUse"
       x2="462.04001"
       gradientTransform="matrix(0,-1.125,0.86721,0.047792,-236.86,855.58)"
       y1="440.97"
       x1="481.47"
       inkscape:collect="always">
      <stop
         id="stop14598"
         style="stop-color:#00001c"
         offset="0" />
      <stop
         id="stop14600"
         style="stop-color:#ffffff;stop-opacity:.2"
         offset="1" />
    </linearGradient>
  </defs>
  <sodipodi:namedview
     id="base"
     bordercolor="#666666"
     inkscape:pageshadow="2"
     guidetolerance="10"
     pagecolor="#ffffff"
     gridtolerance="10000"
     inkscape:window-height="1007"
     inkscape:zoom="11.068554"
     objecttolerance="10"
     showgrid="false"
     borderopacity="1.0"
     inkscape:current-layer="layer1"
     inkscape:cx="58.092505"
     inkscape:cy="93.688845"
     inkscape:window-y="0"
     inkscape:window-x="0"
     inkscape:window-width="1920"
     inkscape:pageopacity="0.0"
     inkscape:document-units="px"
     fit-margin-top="0"
     fit-margin-left="0"
     fit-margin-right="0"
     fit-margin-bottom="0"
     inkscape:showpageshadow="false"
     inkscape:window-maximized="1"
     inkscape:pagecheckerboard="0"
     inkscape:deskcolor="#d1d1d1" />
  <g
     id="layer1"
     inkscape:label="Layer 1"
     inkscape:groupmode="layer"
     transform="translate(-414.00751,-0.03125)">
    <path
       id="path4166"
       style="fill:#717b85;fill-opacity:0.92549002;filter:url(#filter4248)"
       d="m 140.15,301.23 -4.39,8.18 v -0.06 l -3.04,7.6 -0.03,0.69 0.03,0.79 -8.06,0.41 -3.22,-8.05 -0.37,-0.64 -8.06,-7.59 -7,2.71 0.06,0.22 -0.09,-0.16 -3.02,7.51 2.13,9.84 0.43,0.62 3.31,4.22 -2.58,2.29 -7.466,-5.52 -0.676,-0.41 -10.573,-2.41 -3.257,6.37 -3.012,7.54 7.837,7.77 0.031,0.01 0.645,0.31 8.36,3.26 0.246,0.09 -0.307,2.87 -6.701,-0.68 -0.737,0.01 -9.067,3.66 0.031,0.16 -3.074,7.42 1.721,7.4 0.062,0.13 10.542,2.74 0.246,-0.04 0.461,-0.07 8.267,-1.72 0.031,0.09 3.5,5.97 -1.35,0.79 -0.52,0.42 -4.119,8.33 0.03,0.04 -3.012,7.51 6.081,5.89 0.1,-0.05 9.16,-3.35 0.15,-0.14 0.28,-0.3 4.79,-6.11 10.91,5.96 -0.06,0.15 -2.18,7.36 -0.12,0.66 2.42,9.84 8.15,1.96 4.39,-8.15 0.03,-0.66 1.88,-4.37 0.98,-1.8 0.03,-0.51 0.1,-0.24 0.06,-0.66 -0.06,-0.79 7.96,-0.42 0.12,0.01 3.23,8.05 0.36,0.65 8.03,7.55 7.07,-2.67 2.64,-6.71 0.21,-0.1 -0.06,-0.31 0.16,-0.4 0.03,-0.03 v -0.03 l 0.03,-0.12 h -0.06 l -2.09,-9.69 -0.4,-0.65 -3.35,-4.22 2.58,-2.26 0.06,0.04 7.41,5.48 0.67,0.35 10.61,2.42 4.18,-9.36 1.93,-3.78 -0.15,-0.14 0.31,-0.61 -7.84,-7.74 -0.71,-0.35 -8.6,-3.34 0.3,-2.88 6.73,0.68 0.71,-0.01 0.09,-0.08 8.98,-3.58 2.67,-6.71 0.22,-0.09 -0.06,-0.28 0.18,-0.5 -1.75,-7.55 -10.54,-2.68 -0.71,0.04 -8.27,1.72 -3.5,-6.02 1.32,-0.82 0.52,-0.4 4.12,-8.33 2.06,-5.17 0.8,-1.64 -0.12,-0.1 0.24,-0.64 0.03,-0.03 -6.11,-5.85 -9.22,3.4 -0.47,0.4 -4.79,6.17 -10.88,-5.99 2.24,-7.57 0.13,-0.62 -2.46,-9.82 -8.12,-1.98 z m -47.328,34.7 8.608,3.31 -1.17,10.66 h -0.03 l 1.17,-10.63 h -0.03 l -8.548,-3.34 z m 55.688,15.7 c 1.97,2.84 3.14,6.1 3.14,9.4 0,0.89 -0.12,1.67 -0.28,2.49 -3.1,3.23 -8.04,4.87 -13.61,3.95 -7.1,-1.17 -13.17,-6.11 -15.71,-12.1 -5.13,-16.89 18.35,-15.71 26.46,-3.74 z m 4.06,36.92 v 0.04 l -0.43,0.01 v -0.03 l 0.43,-0.02 z m -23.7,-2.31 -2.24,7.51 -0.06,0.32 0.03,-0.36 2.27,-7.47 z m 27.27,11.01 0.06,0.04 -0.06,-0.01 v -0.03 z m -28.8,0.42 1.63,6.55 -0.03,-0.01 -1.6,-6.54 z"
       inkscape:export-ydpi="89.912193"
       sodipodi:nodetypes="cccccccccccccccccccccccccccccccccccccccccccccccccccccccccccccccccccccccccccccccccccccccccccccccccccccccccccccccccccccccccccccccccccccccscscccccccccccccccccccc"
       inkscape:export-filename="/home/antiflash/www/tecnologia_ico.png"
       transform="matrix(1,0,0,0.98604,339.04,-282.52)"
       inkscape:export-xdpi="89.912193"
       inkscape:connector-curvature="0" />
    <rect
       id="rect5569"
       style="fill:none;stroke:#f9f9f9;stroke-width:0.1;stroke-dashoffset:0.175"
       inkscape:export-ydpi="89.912193"
       inkscape:export-filename="/home/antiflash/www/tecnologia_ico.png"
       transform="translate(339.82,-287.5)"
       height="128"
       width="128"
       inkscape:export-xdpi="89.912193"
       y="287.57001"
       x="74.241997" />
    <path
       id="path14757"
       style="fill:url(#linearGradient3308)"
       d="m 190.22,347.1 -2.84,8.04 9.11,-4.72 3.07,-8.17 -9.22,4.85 h -0.12 z"
       inkscape:export-ydpi="89.912193"
       inkscape:export-filename="/home/antiflash/www/tecnologia_ico.png"
       transform="translate(339.82,-287.5)"
       inkscape:export-xdpi="89.912193"
       inkscape:connector-curvature="0" />
    <path
       id="path14755"
       style="fill:url(#linearGradient3305)"
       d="m 179.71,355.4 6.83,-0.09 0.72,-0.08 0.12,-0.09 2.84,-8.04 -0.6,0.09 -9.04,0.08 -0.87,8.13 z"
       inkscape:export-ydpi="89.912193"
       inkscape:export-filename="/home/antiflash/www/tecnologia_ico.png"
       transform="translate(339.82,-287.5)"
       inkscape:export-xdpi="89.912193"
       inkscape:connector-curvature="0" />
    <path
       id="path14753"
       style="fill:url(#linearGradient3302)"
       d="m 174.32,368.84 -2.85,8.04 7.52,4.81 0.68,0.3 10.78,1.27 6.23,-14.88 -13.94,5.48 -0.68,-0.34 -7.59,-4.85 -0.15,0.17 z"
       inkscape:export-ydpi="89.912193"
       inkscape:export-filename="/home/antiflash/www/tecnologia_ico.png"
       transform="translate(339.82,-287.5)"
       inkscape:export-xdpi="89.912193"
       inkscape:connector-curvature="0" />
    <path
       id="path14913"
       style="fill:url(#linearGradient3299)"
       d="m 166.46,376.76 2.31,2.72 2.62,-2.64 0.08,0.04 2.85,-8.04 -7.86,7.92 z"
       inkscape:export-ydpi="89.912193"
       inkscape:export-filename="/home/antiflash/www/tecnologia_ico.png"
       transform="translate(339.82,-287.5)"
       inkscape:export-xdpi="89.912193"
       inkscape:connector-curvature="0" />
    <path
       id="path14751"
       style="fill:url(#linearGradient3296)"
       d="m 171.81,326.05 2.54,4.08 1.37,-0.98 0.53,-0.47 4.18,-9.06 3.04,-8.12 -11.66,14.55 z"
       inkscape:export-ydpi="89.912193"
       inkscape:export-filename="/home/antiflash/www/tecnologia_ico.png"
       transform="translate(339.82,-287.5)"
       inkscape:export-xdpi="89.912193"
       inkscape:connector-curvature="0" />
    <path
       id="path14749"
       style="fill:url(#linearGradient3292)"
       d="m 169.46,392.71 -4.94,12.97 7.18,-3.57 3.07,-8.29 -5.31,-1.11 z"
       inkscape:export-ydpi="89.912193"
       inkscape:export-filename="/home/antiflash/www/tecnologia_ico.png"
       transform="translate(339.82,-287.5)"
       inkscape:export-xdpi="89.912193"
       inkscape:connector-curvature="0" />
    <path
       id="path14747"
       style="fill:url(#linearGradient3289)"
       d="m 155.79,382.12 -3.19,8.12 h 0.11 l 3.27,7.91 0.38,0.64 8.16,6.89 4.94,-12.97 -10.06,-2.04 -0.35,-0.64 -3.26,-7.91 z"
       inkscape:export-ydpi="89.912193"
       inkscape:export-filename="/home/antiflash/www/tecnologia_ico.png"
       transform="translate(339.82,-287.5)"
       inkscape:export-xdpi="89.912193"
       inkscape:connector-curvature="0" />
    <path
       id="path14745"
       style="fill:url(#linearGradient3286)"
       d="m 143.98,384.03 0.5,7.53 8.12,-1.32 3.19,-8.12 -11.81,1.91 z"
       inkscape:export-ydpi="89.912193"
       inkscape:export-filename="/home/antiflash/www/tecnologia_ico.png"
       transform="translate(339.82,-287.5)"
       inkscape:export-xdpi="89.912193"
       inkscape:connector-curvature="0" />
    <path
       id="path14743"
       style="fill:url(#linearGradient3282)"
       d="m 112.4,309.79 -4.9,9.75 0.42,0.59 3.41,4 5.39,-5.4 -4.32,-8.94 z"
       inkscape:export-ydpi="89.912193"
       inkscape:export-filename="/home/antiflash/www/tecnologia_ico.png"
       transform="translate(339.82,-287.5)"
       inkscape:export-xdpi="89.912193"
       inkscape:connector-curvature="0" />
    <path
       id="path14741"
       style="fill:url(#linearGradient3279)"
       d="m 105.33,309.62 2.17,9.92 4.9,-9.75 -3.99,-8.25 -3.08,8.08 z"
       inkscape:export-ydpi="89.912193"
       inkscape:export-filename="/home/antiflash/www/tecnologia_ico.png"
       transform="translate(339.82,-287.5)"
       inkscape:export-xdpi="89.912193"
       inkscape:connector-curvature="0" />
    <path
       id="path4111"
       style="fill:url(#linearGradient4113)"
       d="m 131.87,400.88 -3.19,8.17 8.28,1.1 4.48,-8.93 0.04,-0.68 3.03,-7.53 -12.64,7.87 z"
       inkscape:export-ydpi="89.912193"
       inkscape:export-filename="/home/antiflash/www/tecnologia_ico.png"
       transform="translate(339.82,-287.5)"
       inkscape:export-xdpi="89.912193"
       inkscape:connector-curvature="0" />
    <path
       id="path14739"
       style="fill:url(#linearGradient3276)"
       d="m 135.55,311.2 0.04,0.85 3.61,-0.6 -0.53,-9.14 -3.08,8.17 -0.04,0.72 z"
       inkscape:export-ydpi="89.912193"
       inkscape:export-filename="/home/antiflash/www/tecnologia_ico.png"
       transform="translate(339.82,-287.5)"
       inkscape:export-xdpi="89.912193"
       inkscape:connector-curvature="0" />
    <path
       id="path4120"
       style="fill:url(#linearGradient4128)"
       d="m 128.57,390.63 0.74,0.48 -0.02,-0.06 0.08,-0.68 2.31,-8 -11.08,-4.93 -4.86,6.85 -0.46,0.51 -0.15,0.08 -2.77,7.87 0.3,-0.34 4.86,-6.85 11.09,4.94 -0.04,0.13 z"
       inkscape:export-ydpi="89.912193"
       sodipodi:nodetypes="ccccccccccccccc"
       inkscape:export-filename="/home/antiflash/www/tecnologia_ico.png"
       transform="translate(339.82,-287.5)"
       inkscape:export-xdpi="89.912193"
       inkscape:connector-curvature="0" />
    <path
       id="path14737"
       style="fill:url(#linearGradient4136)"
       d="m 129.31,391.11 -0.74,-0.48 -2.24,7.86 -0.12,0.69 2.47,9.87 3.19,-8.17 -0.11,0.04 -2.45,-9.81 z"
       inkscape:export-ydpi="89.912193"
       sodipodi:nodetypes="cccccccc"
       inkscape:export-filename="/home/antiflash/www/tecnologia_ico.png"
       transform="translate(339.82,-287.5)"
       inkscape:export-xdpi="89.912193"
       inkscape:connector-curvature="0" />
    <path
       id="path14735"
       style="fill:url(#linearGradient3270)"
       d="m 105.83,389.31 -2.93,8.12 9.31,-4.51 0.15,-0.17 2.77,-7.87 -9.26,4.47 -0.04,-0.04 z"
       inkscape:export-ydpi="89.912193"
       inkscape:export-filename="/home/antiflash/www/tecnologia_ico.png"
       transform="translate(339.82,-287.5)"
       inkscape:export-xdpi="89.912193"
       inkscape:connector-curvature="0" />
    <path
       id="path14733"
       style="fill:url(#linearGradient3267)"
       d="m 96.602,392.11 6.188,5.36 0.11,-0.04 2.93,-8.12 -6.114,-5.41 -3.114,8.21 z"
       inkscape:export-ydpi="89.912193"
       inkscape:export-filename="/home/antiflash/www/tecnologia_ico.png"
       transform="translate(339.82,-287.5)"
       inkscape:export-xdpi="89.912193"
       inkscape:connector-curvature="0" />
    <path
       id="path14731"
       style="fill:#000046;fill-opacity:1"
       d="m 103.7,337.06 -3.26,8.09 0.22,0.04 -0.3,3.02 2.2,-0.04 1.18,-11.11 h -0.04 z"
       inkscape:export-ydpi="89.912193"
       inkscape:export-filename="/home/antiflash/www/tecnologia_ico.png"
       transform="translate(339.82,-287.5)"
       inkscape:export-xdpi="89.912193"
       inkscape:connector-curvature="0" />
    <path
       id="path14729"
       style="fill:url(#linearGradient3263)"
       d="m 94.438,334.34 -3.151,8.13 0.646,0.25 8.507,2.43 3.26,-8.09 -8.692,-2.46 -0.57,-0.26 z"
       inkscape:export-ydpi="89.912193"
       inkscape:export-filename="/home/antiflash/www/tecnologia_ico.png"
       transform="translate(339.82,-287.5)"
       inkscape:export-xdpi="89.912193"
       inkscape:connector-curvature="0" />
    <path
       id="path14727"
       style="fill:url(#linearGradient3260)"
       d="m 83.277,335.36 7.972,7.11 h 0.038 l 3.151,-8.13 -0.113,-0.04 -7.935,-7.19 -3.113,8.25 z"
       inkscape:export-ydpi="89.912193"
       inkscape:export-filename="/home/antiflash/www/tecnologia_ico.png"
       transform="translate(339.82,-287.5)"
       inkscape:export-xdpi="89.912193"
       inkscape:connector-curvature="0" />
    <path
       id="path14725"
       style="fill:url(#linearGradient3256)"
       d="m 105.03,359.53 -2.85,8.16 3.57,5.75 5.58,-4.04 -6.11,-9.92 -0.19,0.05 z"
       inkscape:export-ydpi="89.912193"
       inkscape:export-filename="/home/antiflash/www/tecnologia_ico.png"
       transform="translate(339.82,-287.5)"
       inkscape:export-xdpi="89.912193"
       inkscape:connector-curvature="0" />
    <path
       id="path14723"
       style="fill:url(#linearGradient3253)"
       d="m 96.261,362.29 -2.999,8.17 0.493,-0.13 8.395,-2.72 0.03,0.08 2.85,-8.16 -8.2,2.68 -0.569,0.08 z"
       inkscape:export-ydpi="89.912193"
       inkscape:export-filename="/home/antiflash/www/tecnologia_ico.png"
       transform="translate(339.82,-287.5)"
       inkscape:export-xdpi="89.912193"
       inkscape:connector-curvature="0" />
    <path
       id="path14721"
       style="fill:url(#linearGradient3250)"
       d="m 87.339,355.95 -5.087,12.81 0.038,0.13 10.744,1.61 0.228,-0.04 2.999,-8.17 -0.152,0.04 -8.77,-6.38 z"
       inkscape:export-ydpi="89.912193"
       inkscape:export-filename="/home/antiflash/www/tecnologia_ico.png"
       transform="translate(339.82,-287.5)"
       inkscape:export-xdpi="89.912193"
       inkscape:connector-curvature="0" />
    <path
       id="path14714"
       style="fill:url(#linearGradient3247)"
       d="m 80.505,361.31 1.747,7.45 5.087,-12.81 -3.683,-2.68 -3.151,8.04 z"
       inkscape:export-ydpi="89.912193"
       inkscape:export-filename="/home/antiflash/www/tecnologia_ico.png"
       transform="translate(339.82,-287.5)"
       inkscape:export-xdpi="89.912193"
       inkscape:connector-curvature="0" />
    <path
       id="path14591"
       style="fill:url(#linearGradient4152)"
       d="m 143.16,293.43 -4.49,8.93 -0.04,0.7 0.55,8.36 -11.79,1.94 -3.28,-7.95 -0.35,-0.62 -8.21,-6.9 -7.13,3.58 2.13,9.95 0.43,0.57 5.72,6.72 -8.01,8.04 -7.61,-4.82 -0.67,-0.35 -10.765,-1.28 -3.313,6.94 7.966,7.07 0.71,0.31 8.752,2.43 -1.18,11.13 -9.031,0.09 -0.749,0.09 -9.229,4.82 1.814,7.6 10.727,1.59 0.71,-0.18 8.398,-2.69 6.12,9.9 -6.99,5.03 -0.51,0.49 -4.178,9.06 6.228,5.35 9.39,-4.51 0.47,-0.53 4.85,-6.85 11.08,4.95 -2.28,8 -0.12,0.66 2.48,9.85 8.25,1.11 4.49,-8.93 0.04,-0.7 -0.55,-8.36 11.79,-1.94 3.27,7.95 0.36,0.62 8.2,6.9 7.14,-3.58 -2.17,-9.9 -0.39,-0.62 -5.76,-6.72 8.04,-8.04 7.58,4.86 0.67,0.31 10.76,1.28 3.36,-6.89 -7.97,-7.12 -0.71,-0.26 -8.76,-2.48 1.19,-11.09 9.03,-0.13 0.71,-0.09 9.23,-4.82 -1.78,-7.6 -10.73,-1.55 -0.7,0.14 -8.41,2.69 -6.15,-9.9 7.02,-5.03 0.52,-0.45 4.18,-9.1 -6.24,-5.35 -9.38,4.55 -0.47,0.49 -4.86,6.89 -11.08,-4.95 2.29,-8.04 0.12,-0.66 -2.49,-9.86 -8.24,-1.1 z m -7.69,43.53 c 0.69,-0.04 1.38,-0.04 2.09,0 9.54,0.52 17.27,8.1 17.27,16.84 0,0.91 -0.11,1.74 -0.27,2.6 -3.15,3.7 -8.17,5.93 -13.84,5.62 -9.55,-0.53 -17.28,-8.02 -17.28,-16.75 0,-0.91 0.12,-1.79 0.28,-2.65 2.76,-3.25 6.94,-5.39 11.75,-5.66 z"
       inkscape:export-ydpi="89.912193"
       inkscape:export-filename="/home/antiflash/www/tecnologia_ico.png"
       transform="translate(339.82,-287.5)"
       inkscape:export-xdpi="89.912193"
       inkscape:connector-curvature="0" />
    <path
       id="path4150"
       style="fill:url(#linearGradient4241)"
       d="m 493.34,244.81 -4.15,8.22 -0.03,0.41 v 0.03 0.09 l 0.53,8.25 c 0.04,0.45 -0.23,0.84 -0.63,0.91 l -11.78,1.94 c -0.35,0.06 -0.68,-0.14 -0.81,-0.5 l -3.25,-7.82 -0.06,-0.12 -0.22,-0.38 -7.72,-6.5 -6.16,3.13 1.91,8.97 0.34,0.44 5.72,6.71 c 0.15,0.17 0.23,0.4 0.22,0.63 -0.01,0.23 -0.1,0.44 -0.25,0.59 l -8.03,8.03 c -0.25,0.25 -0.59,0.28 -0.88,0.1 l -7.56,-4.78 -0.03,-0.04 -0.5,-0.21 -10.16,-1.25 -2.78,5.81 7.41,6.59 0.06,0.03 0.41,0.16 h 0.03 l 0.06,0.03 8.69,2.41 c 0.37,0.1 0.6,0.48 0.56,0.9 l -1.19,11.16 c -0.04,0.43 -0.36,0.75 -0.75,0.75 l -8.93,0.06 h -0.1 l -0.5,0.1 -8.59,4.46 c 12.96,4.24 25.94,1.64 38.9,-1.96 -0.7,-1.76 -1.09,-3.65 -1.09,-5.63 0,-9.07 8.1,-16.44 18.06,-16.44 9.1,0 16.6,6.13 17.85,14.1 7.21,-0.45 14.44,0.35 21.65,3.47 0.05,-0.43 0.37,-0.76 0.75,-0.75 l 8.97,-0.13 h 0.1 l 0.43,-0.06 8.6,-4.47 -1.5,-6.34 -10.1,-1.44 -0.53,0.06 -0.09,0.03 -8.31,2.66 c -0.31,0.09 -0.63,-0.05 -0.82,-0.34 L 520.94,277 c -0.12,-0.19 -0.17,-0.43 -0.13,-0.66 0.04,-0.22 0.17,-0.43 0.35,-0.56 l 6.93,-4.97 0.1,-0.06 0.31,-0.28 3.78,-8.31 -5.34,-4.6 -8.88,4.32 -0.28,0.24 -0.03,0.07 -0.09,0.06 -4.72,6.75 c -0.21,0.3 -0.56,0.42 -0.88,0.28 l -11.09,-4.94 c -0.38,-0.16 -0.59,-0.63 -0.47,-1.06 l 2.28,-8.06 h 0.03 l 0.07,-0.31 -2.32,-9.13 -7.22,-0.97 z"
       inkscape:export-ydpi="89.912193"
       inkscape:export-filename="/home/antiflash/www/tecnologia_ico.png"
       transform="translate(-9.9375,-237.96)"
       inkscape:export-xdpi="89.912193"
       inkscape:connector-curvature="0" />
    <path
       id="path14587"
       style="opacity:0.7;fill:#000000;filter:url(#filter4146)"
       d="m 82.823,362.17 0.195,0.7 10.988,1.48 0.779,-0.16 8.615,-2.49 5.76,8.42 0.12,-0.08 -6.27,-9.08 -8.614,2.49 -0.741,0.12 -10.832,-1.4 z m 1.169,-30.01 8.183,6.51 0.701,0.24 8.534,2.14 0.08,-0.63 -8.965,-2.26 -0.701,-0.27 -7.676,-6.04 -0.156,0.31 z m 13.677,51.98 6.391,4.91 9.62,-4.16 0.51,-0.47 4.99,-6.28 10.83,4.33 0.16,-0.55 -11.38,-4.52 -4.99,6.28 -0.47,0.46 -9.66,4.17 -5.845,-4.52 -0.156,0.35 z m 32.771,14.81 0.19,0.7 8.46,1.02 4.6,-8.19 0.04,-0.62 -0.59,-7.68 12.12,-1.75 -0.35,-0.74 -12.12,1.75 0.55,7.68 -0.04,0.62 -4.6,8.19 -8.26,-0.98 z m 28.02,-9.7 0.19,0.43 0.35,0.58 8.42,6.31 7.32,-3.27 -2.22,-9.08 -0.23,-0.39 2.1,8.69 -7.36,3.31 -8.42,-6.31 -0.15,-0.27 z m 7.4,-12.47 0.54,0.58 8.07,-7.2 7.79,4.44 0.67,0.27 11.06,1.17 3.39,-6.31 -0.5,-0.43 -3.28,6 -11.02,-1.17 -0.71,-0.31 -7.79,-4.44 -8.22,7.4 z m 5.49,-46.45 0.47,0.7 7.09,-4.55 0.51,-0.43 4.29,-8.3 -0.51,-0.39 -4.13,7.95 -0.55,0.42 -7.17,4.6 z m 7.8,29.62 0.46,0.11 1.13,-9.54 9.24,-0.08 0.78,-0.08 9.47,-4.4 -1.83,-6.98 -0.2,-0.04 1.64,6.24 -9.47,4.44 -0.74,0.08 -9.28,0.08 -1.2,10.17 z"
       inkscape:export-ydpi="89.912193"
       sodipodi:nodetypes="cccccccccccccccccccccccccccccccccccccccccccccccccccccccccccccccccccccccccccccccccccccccccccc"
       inkscape:export-filename="/home/antiflash/www/tecnologia_ico.png"
       transform="matrix(0.97431,0,0,1.0918,344.18,-322.15)"
       inkscape:export-xdpi="89.912193"
       inkscape:connector-curvature="0" />
    <path
       id="path14594"
       style="opacity:0.6;fill:url(#linearGradient3331);fill-rule:evenodd"
       d="m 138.98,330.37 c -7.73,0.3 -13.96,5.39 -15.26,12.25 3.15,-3.71 8.16,-5.97 13.84,-5.66 9.54,0.52 17.27,8.1 17.27,16.84 0,0.91 -0.11,1.74 -0.27,2.6 -0.09,0.1 -0.14,0.22 -0.2,0.31 2.3,-2.56 3.67,-5.87 3.67,-9.54 0,-8.74 -7.77,-16.23 -17.31,-16.75 -0.6,-0.03 -1.16,-0.07 -1.74,-0.05 z"
       inkscape:export-ydpi="89.912193"
       inkscape:export-filename="/home/antiflash/www/tecnologia_ico.png"
       transform="translate(339.82,-287.5)"
       inkscape:export-xdpi="89.912193"
       inkscape:connector-curvature="0" />
  </g>
  <metadata
     id="metadata4440">
    <rdf:RDF>
      <cc:Work>
        <dc:format>image/svg+xml</dc:format>
        <dc:type
           rdf:resource="http://purl.org/dc/dcmitype/StillImage" />
        <cc:license
           rdf:resource="http://creativecommons.org/licenses/publicdomain/" />
        <dc:publisher>
          <cc:Agent
             rdf:about="http://openclipart.org/">
            <dc:title>Openclipart</dc:title>
          </cc:Agent>
        </dc:publisher>
        <dc:title />
        <dc:date>2009-07-25T06:34:40</dc:date>
        <dc:description>a set of icons to symbolize the sectors of my website. Each icon is unique</dc:description>
        <dc:source>https://openclipart.org/detail/27361/icons-by-antiflash</dc:source>
        <dc:creator>
          <cc:Agent>
            <dc:title>antiFlash</dc:title>
          </cc:Agent>
        </dc:creator>
        <dc:subject>
          <rdf:Bag>
            <rdf:li>cartoon</rdf:li>
            <rdf:li>cleanup</rdf:li>
            <rdf:li>design</rdf:li>
            <rdf:li>gears</rdf:li>
            <rdf:li>icons</rdf:li>
            <rdf:li>mail</rdf:li>
            <rdf:li>pencil</rdf:li>
            <rdf:li>portfolio</rdf:li>
            <rdf:li>ruler</rdf:li>
            <rdf:li>sales</rdf:li>
            <rdf:li>sign</rdf:li>
            <rdf:li>web</rdf:li>
          </rdf:Bag>
        </dc:subject>
      </cc:Work>
      <cc:License
         rdf:about="http://creativecommons.org/licenses/publicdomain/">
        <cc:permits
           rdf:resource="http://creativecommons.org/ns#Reproduction" />
        <cc:permits
           rdf:resource="http://creativecommons.org/ns#Distribution" />
        <cc:permits
           rdf:resource="http://creativecommons.org/ns#DerivativeWorks" />
      </cc:License>
    </rdf:RDF>
  </metadata>
</svg>
